<svg id="Слой_1" data-name="Слой 1" xmlns="http://www.w3.org/2000/svg" viewBox="0 0 135.12 30"><defs><style>.cls-1{fill:#333;}</style></defs><title>logo</title><path class="cls-1" d="M0,0V30H11.83l2.59-2.59,3.4-3.4,2.59-2.59V0ZM10.75,27.41h0V20.34h7.11ZM17.82,3.12V17.74H8.12v9.66H2.59V2.59H17.82Z" transform="translate(0 0)"/><rect class="cls-1" x="8.05" y="8.07" width="4.23" height="4.23"/><path class="cls-1" d="M37.91,15.8h2.48A4.69,4.69,0,0,1,35.5,20,5,5,0,0,1,30.34,15,5,5,0,0,1,35.5,9.9a4.69,4.69,0,0,1,4.89,4.24H37.91a2.35,2.35,0,0,0-2.42-2A2.65,2.65,0,0,0,32.79,15a2.65,2.65,0,0,0,2.7,2.81A2.35,2.35,0,0,0,37.91,15.8Z" transform="translate(0 0)"/><path class="cls-1" d="M53.66,15A5.17,5.17,0,1,1,48.49,9.9,5,5,0,0,1,53.66,15ZM51.2,15a2.71,2.71,0,1,0-5.42,0,2.71,2.71,0,1,0,5.42,0Z" transform="translate(0 0)"/><path class="cls-1" d="M60.75,10.1c3.05,0,5.26,2,5.26,4.85s-2.21,4.9-5.26,4.9H56.82V10.1Zm0,7.57a2.7,2.7,0,1,0,0-5.39H59.24v5.39Z" transform="translate(0 0)"/><path class="cls-1" d="M72,14h4.32V16H72v1.69h4.95v2.11H69.54V10.1h7.37V12.2H72Z" transform="translate(0 0)"/><path class="cls-1" d="M84.84,10.1c2.54,0,4.13,1.38,4.13,3.57s-1.66,3.7-4.33,3.7h-1.3v2.48H80.91V10.1Zm-.06,5.15a1.57,1.57,0,0,0,1.76-1.58c0-.87-.69-1.43-1.76-1.43H83.33v3Z" transform="translate(0 0)"/><path class="cls-1" d="M93.5,18.17l-.65,1.68H90.28L94.42,10h2.31l4.13,9.81H98.29l-.66-1.68Zm2.06-5.3L94.3,16.1h2.52Z" transform="translate(0 0)"/><path class="cls-1" d="M108,10.1c2.54,0,4.13,1.38,4.13,3.57s-1.66,3.7-4.33,3.7h-1.3v2.48h-2.42V10.1Zm-.06,5.15a1.57,1.57,0,0,0,1.76-1.58c0-.87-.69-1.43-1.76-1.43h-1.45v3Z" transform="translate(0 0)"/><path class="cls-1" d="M117.69,14H122V16h-4.32v1.69h4.95v2.11h-7.37V10.1h7.37V12.2h-4.95Z" transform="translate(0 0)"/><path class="cls-1" d="M128.59,17v2.82h-2.42V10.1h4.27c2.41,0,4,1.32,4,3.43a3.28,3.28,0,0,1-1.86,3l2.51,3.3h-2.92L130.1,17Zm1.79-2.18c.93,0,1.68-.52,1.68-1.32s-.75-1.29-1.68-1.29h-1.79v2.61Z" transform="translate(0 0)"/></svg>
